<?xml version="1.0" encoding="UTF-8" standalone="no"?>
<!-- Created with Inkscape (http://www.inkscape.org/) -->
<svg
   xmlns:svg="http://www.w3.org/2000/svg"
   xmlns="http://www.w3.org/2000/svg"
   xmlns:inkscape="http://www.inkscape.org/namespaces/inkscape"
   version="1.0"
   width="48"
   height="48"
   id="svg2">
  <defs
     id="defs5">
    <inkscape:path-effect
       effect="skeletal"
       id="path-effect3163" />
    <inkscape:path-effect
       effect="skeletal"
       id="path-effect3161" />
    <inkscape:path-effect
       effect="skeletal"
       id="path-effect3159" />
  </defs>
  <g
     transform="matrix(0.3880806,0,0,0.3880806,-4.9919041,3.4488499)"
     id="g2388">
    <path
       d="M 128.529,16.2942 C 128.64,16.4073 128.302,16.9716 127.508,17.9306 C 126.715,18.8896 125.463,20.2418 123.714,21.8838 C 121.966,23.5258 119.718,25.4556 116.941,27.5483 C 114.164,29.641 110.855,31.8945 107.039,34.1945 C 103.314,36.4474 99.0668,38.771 94.2594,40.8912 C 89.4519,43.0113 84.0835,44.9295 78.1342,46.2223 C 78.1154,46.2264 78.0965,46.2305 78.0777,46.2346 C 74.9325,46.9052 71.8666,47.2362 68.9204,47.3939 C 65.9742,47.5517 63.1476,47.536 60.4652,47.4674 C 53.1274,47.2907 46.6706,46.612 41.1863,45.8886 C 27.1984,43.5556 19.3355,41.85 19.4118,41.2942 C 19.4881,40.7383 27.5141,41.2147 41.5649,42.7322 C 47.0188,43.1318 53.379,43.5476 60.5159,43.5586 C 63.1535,43.5589 65.8895,43.5294 68.6868,43.3551 C 71.4842,43.1807 74.3427,42.8618 77.2164,42.236 C 77.2343,42.2322 77.2521,42.2283 77.27,42.2245 C 82.9023,41.0136 88.0421,39.2325 92.7104,37.2839 C 97.3787,35.3352 101.575,33.2173 105.314,31.1878 C 109.143,29.1014 112.497,27.1022 115.358,25.2735 C 118.22,23.4448 120.592,21.7886 122.499,20.4119 C 124.405,19.0351 125.849,17.94 126.852,17.226 C 127.855,16.5119 128.419,16.181 128.529,16.2942 z"
       inkscape:original-d="M 19.411765,41.294118 C 19.411765,41.294118 58.529412,48.352941 77.647059,44.235294 C 96.764706,40.117647 117.64706,26.882353 128.52941,16.294118"
       inkscape:path-effect="#path-effect3163"
       id="path2384"
       style="fill:#000000;fill-rule:evenodd;stroke:#000000;stroke-width:1px;stroke-linecap:butt;stroke-linejoin:miter;stroke-opacity:1" />
    <path
       d="M 19.117647,11.588235 C 19.117647,11.588235 22.941176,23.058824 22.352941,33.352941 C 21.764706,43.647059 19.705882,58.352941 19.705882,58.352941 C 19.705882,58.352941 59.411765,48.941176 75.294118,48.352941 C 91.176471,47.764706 121.76471,45.117647 127.05882,53.941176 C 132.35294,62.764706 125,44.235294 125.29412,29.235294 C 125.58824,14.235294 130.29412,5.7058824 130.29412,5.7058824 C 130.29412,5.7058824 105.29412,14.823529 93.529412,16.294118 C 81.764706,17.764706 45.882353,21.294118 19.117647,11.588235 z"
       id="path3165"
       style="fill:none;fill-rule:evenodd;stroke:#000000;stroke-width:2;stroke-linecap:butt;stroke-linejoin:miter;stroke-miterlimit:4;stroke-dasharray:none;stroke-opacity:1" />
    <path
       d="M 49.400718,42.610462 C 46.650718,42.466729 40.959541,42.017459 36.753659,41.612082 C 32.547777,41.206709 27.607803,40.785821 25.775938,40.676777 L 22.445277,40.478524 L 22.687694,37.215241 C 23.249827,29.648547 22.662035,22.623565 20.879394,15.603285 C 20.487094,14.058388 20.204891,12.755632 20.252256,12.708268 C 20.299627,12.6609 20.921518,12.829474 21.63425,13.082868 C 22.346988,13.336265 24.650718,13.995109 26.753659,14.546974 C 39.259859,17.828915 55.107597,19.237103 71.892071,18.557856 C 83.103697,18.104138 91.563388,17.344171 97.047777,16.298032 C 102.95823,15.170618 113.26886,12.198403 124.32719,8.4342677 C 126.87498,7.5670265 128.95954,6.8732471 128.95954,6.8925354 C 128.95954,6.9118207 128.58086,7.9786736 128.11804,9.2633148 C 127.65521,10.547956 126.97496,12.838188 126.60635,14.352729 L 125.93616,17.106438 L 123.5508,18.867141 C 112.61077,26.942247 97.96978,34.929974 87.010538,38.802518 C 83.358383,40.093038 77.318297,41.630427 73.665424,42.199262 C 69.931994,42.780641 56.886509,43.001718 49.400718,42.610462 z"
       id="path3167"
       style="opacity:1;fill:#a8e0fa;fill-opacity:1;stroke:none;stroke-width:5.69999981;stroke-miterlimit:4;stroke-dasharray:none;stroke-opacity:1" />
    <path
       d="M 20.56148,56.492782 C 20.656091,55.904153 21.06108,52.655382 21.461462,49.273291 C 21.861847,45.891194 22.242183,43.071282 22.306656,43.006809 C 22.37113,42.942338 23.19955,43.085362 24.147594,43.324647 C 25.680038,43.711438 30.554641,44.644697 38.077188,45.991518 C 45.463691,47.313985 59.839827,48.368409 67.194835,48.127168 C 69.540424,48.050229 70.93013,48.042741 70.283071,48.110515 C 61.22538,49.059259 38.96933,53.225215 22.836274,56.991762 L 20.389471,57.563009 L 20.56148,56.492782 z"
       id="path3169"
       style="opacity:1;fill:#9bc157;fill-opacity:1;stroke:none;stroke-width:5.69999981;stroke-miterlimit:4;stroke-dasharray:none;stroke-opacity:1" />
    <path
       d="M 126.38816,52.405727 C 124.10709,50.079535 120.79856,48.794718 114.40072,47.750588 C 108.87761,46.849212 93.268527,46.853356 74.253659,47.761235 C 72.878659,47.826882 72.150718,47.818179 72.636012,47.741888 C 82.19735,46.238797 88.302406,44.358212 96.948885,40.252621 C 106.67075,35.636406 115.97789,29.594779 122.8873,23.414985 L 125.19741,21.348821 L 124.96989,23.973918 C 124.31103,31.575806 125.01232,39.221818 127.39095,50.370224 C 127.79897,52.282624 128.08722,53.876759 128.03148,53.912753 C 127.97573,53.948744 127.23624,53.270585 126.38816,52.405727 L 126.38816,52.405727 z"
       id="path3171"
       style="opacity:1;fill:#9bc157;fill-opacity:1;stroke:none;stroke-width:5.69999981;stroke-miterlimit:4;stroke-dasharray:none;stroke-opacity:1" />
    <path
       d="M 73.529412,49.235294 C 73.529412,49.235294 75.882353,50.117647 76.470588,54.529412 C 77.058824,58.941176 80.882353,81 80.588235,87.470588 C 80.294118,93.941176 77.058824,96.882353 77.058824,96.882353 L 76.470588,100.70588 L 89.117647,89.529412 C 89.117647,89.529412 85.882353,82.764706 85,75.705882 C 84.117647,68.647059 83.529412,61.588235 83.529412,61.588235 C 83.529412,61.588235 96.470588,80.411765 97.647059,85.705882 C 98.823529,91 97.647059,95.411765 97.647059,95.411765 C 97.647059,95.411765 93.823529,99.529412 96.470588,98.352941 C 99.117647,97.176471 108.52941,90.705882 108.52941,90.705882 L 87.352941,55.411765 L 85.882353,43.352941 L 73.235294,45.411765 L 73.529412,49.235294 z"
       id="path3183"
       style="fill:#000000;fill-opacity:1;fill-rule:evenodd;stroke:#000000;stroke-width:1px;stroke-linecap:butt;stroke-linejoin:miter;stroke-opacity:1" />
    <path
       d="M 77.905874,23.830051 C 73.568457,23.830051 70.046097,27.197646 70.046095,31.345103 C 70.046095,35.49256 73.568458,38.860157 77.905874,38.860155 C 82.243292,38.860155 85.765654,35.492561 85.765654,31.345103 C 85.765654,27.197645 82.243293,23.830051 77.905874,23.830051 z M 77.767983,25.450268 C 81.43945,25.45027 84.386745,28.135247 84.386745,31.448521 C 84.386747,34.761795 81.439449,37.446773 77.767983,37.446773 C 74.096519,37.446771 71.114749,34.761795 71.114749,31.448521 C 71.114749,28.135247 74.096518,25.450268 77.767983,25.450268 z"
       id="path3187"
       style="opacity:1;fill:#000000;fill-opacity:1;stroke:#000000;stroke-width:3;stroke-miterlimit:4;stroke-dasharray:none;stroke-opacity:1" />
  </g>
</svg>
